<svg width="24" height="24" viewBox="0 0 24 24" fill="none" xmlns="http://www.w3.org/2000/svg">
<g id="8993399_verified_label_badge_checkmark_logo_icon 2">
<path id="Vector" fill-rule="evenodd" clip-rule="evenodd" d="M10.2129 3.60971C10.8784 2.79677 12.1216 2.79676 12.7872 3.60971L13.6122 4.61735L14.8304 4.15719C15.8134 3.78596 16.8899 4.40755 17.0598 5.44436L17.2705 6.7295L18.5557 6.94013C19.5925 7.11006 20.2141 8.1867 19.8429 9.16957L19.3826 10.3878L20.3903 11.2128C21.2032 11.8784 21.2032 13.1216 20.3903 13.7872L19.3826 14.6122L19.8429 15.8304C20.2141 16.8133 19.5925 17.8899 18.5557 18.0599L17.2705 18.2705L17.0599 19.5556C16.8899 20.5924 15.8134 21.214 14.8304 20.8428L13.6122 20.3827L12.7872 21.3903C12.1216 22.2032 10.8784 22.2032 10.2129 21.3903L9.38786 20.3827L8.16958 20.8428C7.1867 21.214 6.11007 20.5924 5.94014 19.5556L5.7295 18.2705L4.44436 18.0599C3.40754 17.8899 2.78596 16.8133 3.1572 15.8304L3.61736 14.6122L2.60971 13.7872C1.79677 13.1216 1.79676 11.8784 2.60971 11.2128L3.61736 10.3878L3.1572 9.16957C2.78595 8.1867 3.40755 7.11006 4.44437 6.94013L5.7295 6.7295L5.94014 5.44436C6.11007 4.40755 7.18671 3.78596 8.16958 4.15719L9.38786 4.61735L10.2129 3.60971ZM10.8409 15.9993L16.6633 10.177L15.487 9.00067L10.2527 14.2349L7.51379 11.496L6.33749 12.6723L9.66457 15.9993C9.82056 16.1554 10.0321 16.243 10.2527 16.243C10.4733 16.243 10.6849 16.1554 10.8409 15.9993Z" fill="#4BABC0"/>
</g>
</svg>
