<svg width="18" height="13" viewBox="0 0 18 13" fill="none" xmlns="http://www.w3.org/2000/svg">
<path id="Vector" d="M9.39878 12.983L5.70588 12.9125C4.5102 12.8879 3.31154 12.9369 2.13931 12.6824C0.356065 12.302 0.229734 10.4371 0.097542 8.87274C-0.0846053 6.67349 -0.0140906 4.43432 0.329645 2.25343C0.523695 1.02972 1.28736 0.299528 2.46834 0.220069C6.45503 -0.0683005 10.4682 -0.0341257 14.4461 0.100409C14.8662 0.112742 15.2892 0.18015 15.7034 0.256879C17.7483 0.63111 17.7981 2.7445 17.9307 4.52357C18.0629 6.32101 18.007 8.12767 17.7544 9.91287C17.5517 11.391 17.1638 12.6305 15.5271 12.7501C13.4764 12.9066 11.4728 13.0326 9.41636 12.9925C9.41645 12.983 9.40464 12.983 9.39878 12.983ZM7.22771 9.24085C8.77308 8.31446 10.289 7.4035 11.8255 6.48332C10.2772 5.55692 8.76424 4.64596 7.22771 3.72578V9.24085Z" fill="#FF0000"/>
</svg>
